# xmcd
#
# Track frame offsets: 
#        150
#        14298
#        35166
#        53717
#        71849
#        90557
#        108026
#        127709
#        140850
#        155959
#        174139
#        197041
#        211988
#        230620
#        246352
#
# Disc length: 3576 seconds
#
# Revision: 0
# Processed by: cddbd v1.5.2PL0 Copyright (c) Steve Scherf et al.
# Submitted via: ExactAudioCopyFreeDBPlugin 1.0
#
DISCID=d20df60f
DTITLE=Ska-P - 99%
DYEAR=2013
DGENRE=Ska
TTITLE0=Full Gas
TTITLE1=Canto A La Rebelión
TTITLE2=Ciudadano Papagayo
TTITLE3=Pandemia S.L.
TTITLE4=Se Acabó
TTITLE5=Ska-Pa
TTITLE6=Marinaleda
TTITLE7=Ali Babá
TTITLE8=Victoria
TTITLE9=Bajo Vigilancia
TTITLE10=Maquis
TTITLE11=Oniomanos
TTITLE12=¿Quiénes Sois?
TTITLE13=Radio Falacia
TTITLE14=África Agónica
EXTD=
EXTT0=
EXTT1=
EXTT2=
EXTT3=
EXTT4=
EXTT5=
EXTT6=
EXTT7=
EXTT8=
EXTT9=
EXTT10=
EXTT11=
EXTT12=
EXTT13=
EXTT14=
PLAYORDER=
